<svg width="168" height="62" viewBox="0 0 168 62" fill="none" xmlns="http://www.w3.org/2000/svg">
<path d="M10.9146 39.9495L9.72632 39.034L10.9146 39.9495ZM22.4404 49.73C22.8465 49.008 22.5905 48.0934 21.8684 47.6873C21.1464 47.2811 20.2318 47.5372 19.8257 48.2592L22.4404 49.73ZM2.28906 53.5172L1.83169 52.0886L2.28906 53.5172ZM32.9894 15.1515L31.908 14.112L32.9894 15.1515ZM37.3834 15.2872L38.5198 14.3082L37.3834 15.2872ZM12.1029 40.8649C18.4269 32.656 29.346 21.1059 34.0708 16.191L31.908 14.112C27.1973 19.0123 16.1656 30.6755 9.72632 39.034L12.1029 40.8649ZM36.2469 16.2662L48.2205 30.1655L50.4934 28.2075L38.5198 14.3082L36.2469 16.2662ZM19.2483 43.2859C23.8522 42.0922 26.8993 43.4874 28.504 45.4279C30.183 47.4584 30.3999 50.1534 29.2776 51.9773L31.8325 53.5496C33.7252 50.4739 33.1884 46.3852 30.8159 43.5161C28.3692 40.5572 24.0671 38.9373 18.4954 40.3819L19.2483 43.2859ZM29.2776 51.9773C28.2433 53.6579 25.8754 54.2078 23.9158 53.5546C22.9763 53.2414 22.3663 52.7172 22.1026 52.1676C21.869 51.6806 21.7783 50.907 22.4404 49.73L19.8257 48.2592C18.7917 50.0973 18.6539 51.9147 19.3978 53.4653C20.1117 54.9532 21.5039 55.9129 22.9671 56.4006C25.8126 57.3492 29.8517 56.7684 31.8325 53.5496L29.2776 51.9773ZM18.4954 40.3819C13.0694 41.7886 9.24418 44.7181 6.5346 47.3245C5.1942 48.6139 4.09135 49.8615 3.26413 50.747C2.83706 51.2042 2.49819 51.5497 2.21677 51.7958C1.91069 52.0635 1.79831 52.0993 1.83169 52.0886L2.74643 54.9458C3.31973 54.7622 3.81251 54.3857 4.19184 54.0539C4.59582 53.7006 5.0226 53.2593 5.45643 52.7949C6.35102 51.8372 7.35096 50.7019 8.61435 49.4866C11.1124 47.0837 14.4987 44.5173 19.2483 43.2859L18.4954 40.3819ZM1.83169 52.0886C1.87323 52.0753 2.00639 52.036 2.19775 52.0422C2.40497 52.049 2.71809 52.113 3.00874 52.3521C3.29798 52.5901 3.42008 52.8823 3.467 53.0791C3.51067 53.2622 3.50011 53.3995 3.49538 53.4458C3.48539 53.5437 3.48878 53.4345 3.71396 52.9858C4.10481 52.207 4.84396 51.0121 5.79626 49.5875C7.68321 46.7647 10.2573 43.2605 12.1029 40.8649L9.72632 39.034C7.85388 41.4646 5.23741 45.0253 3.30218 47.9203C2.34339 49.3546 1.51355 50.6819 1.03264 51.6403C0.821933 52.0601 0.563747 52.6233 0.510885 53.1412C0.490265 53.3432 0.43533 54.1197 1.10278 54.6688C1.77809 55.2244 2.53836 55.0124 2.74643 54.9458L1.83169 52.0886ZM34.0708 16.191C34.6654 15.5725 35.6679 15.5941 36.2469 16.2662L38.5198 14.3082C36.8059 12.3186 33.7481 12.1979 31.908 14.112L34.0708 16.191Z" fill="url(#paint0_linear_71_672)"/>
<path d="M39.6411 39.3008L60.189 18.9572C61.4089 17.7495 63.3915 17.8097 64.5358 19.0891L78 34.1433" stroke="white" stroke-width="3" stroke-linecap="round"/>
<path d="M49.956 37.5774C50.7844 37.5774 51.456 36.9058 51.456 36.0774C51.456 35.249 50.7844 34.5774 49.956 34.5774V37.5774ZM42.2197 37.5774H49.956V34.5774H42.2197V37.5774Z" fill="white"/>
<ellipse cx="72.3466" cy="5.27634" rx="5.65323" ry="5.27634" fill="url(#paint1_linear_71_672)"/>
<path d="M59.7391 55.26C59.4445 55.26 59.2105 55.1733 59.0371 55C58.8638 54.8093 58.7771 54.5493 58.7771 54.22V44.054C58.7771 41.6967 59.4358 39.8593 60.7531 38.542C62.0878 37.2073 63.9338 36.54 66.2911 36.54C68.6311 36.54 70.4685 37.2073 71.8031 38.542C73.1378 39.8767 73.8051 41.714 73.8051 44.054V54.22C73.8051 54.5493 73.7185 54.8093 73.5451 55C73.3718 55.1733 73.1291 55.26 72.8171 55.26C72.5225 55.26 72.2798 55.1733 72.0891 55C71.9158 54.8093 71.8291 54.5493 71.8291 54.22V48.37H60.7271V54.22C60.7271 54.5493 60.6405 54.8093 60.4671 55C60.2938 55.1733 60.0511 55.26 59.7391 55.26ZM71.8291 46.758V43.976C71.8291 42.1213 71.3525 40.7 70.3991 39.712C69.4458 38.7067 68.0765 38.204 66.2911 38.204C64.4885 38.204 63.1105 38.698 62.1571 39.686C61.2038 40.674 60.7271 42.104 60.7271 43.976V46.758H71.8291ZM78.6292 55.26C78.3345 55.26 78.1005 55.1733 77.9272 55C77.7538 54.8093 77.6672 54.5493 77.6672 54.22V43.612C77.6672 42.1733 77.9705 40.9253 78.5772 39.868C79.2012 38.7933 80.0852 37.97 81.2292 37.398C82.3732 36.826 83.7165 36.54 85.2592 36.54C86.8018 36.54 88.1365 36.826 89.2632 37.398C90.4072 37.97 91.2825 38.7933 91.8892 39.868C92.5132 40.9253 92.8252 42.1733 92.8252 43.612V54.22C92.8252 54.5493 92.7385 54.8093 92.5652 55C92.4092 55.1733 92.1752 55.26 91.8632 55.26C91.5685 55.26 91.3258 55.1733 91.1352 55C90.9618 54.8093 90.8752 54.5493 90.8752 54.22V43.534C90.8752 41.8527 90.3812 40.544 89.3932 39.608C88.4052 38.672 87.0272 38.204 85.2592 38.204C83.5258 38.204 82.1478 38.6807 81.1252 39.634C80.1198 40.5873 79.6172 41.8873 79.6172 43.534V54.22C79.6172 54.5493 79.5305 54.8093 79.3572 55C79.1838 55.1733 78.9412 55.26 78.6292 55.26ZM104.782 55.26C102.945 55.26 101.342 54.8787 99.9723 54.116C98.603 53.3533 97.5457 52.27 96.8003 50.866C96.055 49.4447 95.6823 47.798 95.6823 45.926C95.6823 44.054 96.055 42.4073 96.8003 40.986C97.5457 39.5647 98.603 38.4727 99.9723 37.71C101.359 36.93 102.962 36.54 104.782 36.54C106.256 36.54 107.625 36.7913 108.89 37.294C110.173 37.7967 111.152 38.49 111.828 39.374C111.984 39.5473 112.062 39.7553 112.062 39.998C112.062 40.2753 111.941 40.492 111.698 40.648C111.542 40.752 111.369 40.804 111.178 40.804C111.022 40.804 110.866 40.7693 110.71 40.7C110.554 40.6133 110.424 40.5093 110.32 40.388C109.783 39.712 109.038 39.1833 108.084 38.802C107.131 38.4033 106.03 38.204 104.782 38.204C103.326 38.204 102.061 38.516 100.986 39.14C99.9117 39.764 99.0883 40.6567 98.5163 41.818C97.9443 42.9793 97.6583 44.3487 97.6583 45.926C97.6583 48.318 98.291 50.1987 99.5563 51.568C100.822 52.92 102.564 53.596 104.782 53.596C105.944 53.596 106.975 53.414 107.876 53.05C108.778 52.6687 109.48 52.1487 109.982 51.49C110.502 50.814 110.762 50.0513 110.762 49.202V48.318C110.762 47.85 110.667 47.512 110.476 47.304C110.303 47.096 109.965 46.992 109.462 46.992H105.51C104.852 46.992 104.522 46.732 104.522 46.212C104.522 45.6573 104.852 45.38 105.51 45.38H109.8C110.788 45.38 111.525 45.5967 112.01 46.03C112.496 46.4633 112.738 47.1307 112.738 48.032V49.02C112.738 50.1813 112.392 51.2387 111.698 52.192C111.005 53.1453 110.052 53.8993 108.838 54.454C107.625 54.9913 106.273 55.26 104.782 55.26ZM117.046 55.26C116.751 55.26 116.517 55.1733 116.344 55C116.17 54.8093 116.084 54.5493 116.084 54.22V44.054C116.084 41.6967 116.742 39.8593 118.06 38.542C119.394 37.2073 121.24 36.54 123.598 36.54C125.938 36.54 127.775 37.2073 129.11 38.542C130.444 39.8767 131.112 41.714 131.112 44.054V54.22C131.112 54.5493 131.025 54.8093 130.852 55C130.678 55.1733 130.436 55.26 130.124 55.26C129.829 55.26 129.586 55.1733 129.396 55C129.222 54.8093 129.136 54.5493 129.136 54.22V48.37H118.034V54.22C118.034 54.5493 117.947 54.8093 117.774 55C117.6 55.1733 117.358 55.26 117.046 55.26ZM129.136 46.758V43.976C129.136 42.1213 128.659 40.7 127.706 39.712C126.752 38.7067 125.383 38.204 123.598 38.204C121.795 38.204 120.417 38.698 119.464 39.686C118.51 40.674 118.034 42.104 118.034 43.976V46.758H129.136ZM140.702 55.26C140.39 55.26 140.147 55.1733 139.974 55C139.818 54.8093 139.74 54.5493 139.74 54.22V38.412H133.786C133.474 38.412 133.223 38.3513 133.032 38.23C132.859 38.0913 132.772 37.892 132.772 37.632C132.772 37.0773 133.11 36.8 133.786 36.8H147.67C148.346 36.8 148.684 37.0773 148.684 37.632C148.684 37.8747 148.597 38.0653 148.424 38.204C148.251 38.3427 147.999 38.412 147.67 38.412H141.716V54.22C141.716 54.5493 141.621 54.8093 141.43 55C141.257 55.1733 141.014 55.26 140.702 55.26ZM151.298 55.26C151.003 55.26 150.769 55.1733 150.596 55C150.422 54.8093 150.336 54.5493 150.336 54.22V44.054C150.336 41.6967 150.994 39.8593 152.312 38.542C153.646 37.2073 155.492 36.54 157.85 36.54C160.19 36.54 162.027 37.2073 163.362 38.542C164.696 39.8767 165.364 41.714 165.364 44.054V54.22C165.364 54.5493 165.277 54.8093 165.104 55C164.93 55.1733 164.688 55.26 164.376 55.26C164.081 55.26 163.838 55.1733 163.648 55C163.474 54.8093 163.388 54.5493 163.388 54.22V48.37H152.286V54.22C152.286 54.5493 152.199 54.8093 152.026 55C151.852 55.1733 151.61 55.26 151.298 55.26ZM163.388 46.758V43.976C163.388 42.1213 162.911 40.7 161.958 39.712C161.004 38.7067 159.635 38.204 157.85 38.204C156.047 38.204 154.669 38.698 153.716 39.686C152.762 40.674 152.286 42.104 152.286 43.976V46.758H163.388Z" fill="white"/>
<defs>
<linearGradient id="paint0_linear_71_672" x1="25.6785" y1="12.814" x2="25.6785" y2="55.3176" gradientUnits="userSpaceOnUse">
<stop stop-color="#4C7781"/>
<stop offset="1" stop-color="#779091"/>
</linearGradient>
<linearGradient id="paint1_linear_71_672" x1="72.3466" y1="-2.46229" x2="72.3466" y2="13.015" gradientUnits="userSpaceOnUse">
<stop offset="0.265625" stop-color="#EFD586"/>
<stop offset="1" stop-color="#F2C67D" stop-opacity="0"/>
</linearGradient>
</defs>
</svg>
